<?xml version="1.0" encoding="UTF-8"?>
<svg id="Artwork" xmlns="http://www.w3.org/2000/svg" viewBox="0 0 422.86 190.36">
  <defs>
    <style>
      .cls-1 {
        fill: #f1ca64;
      }

      .cls-2 {
        fill: #1f1f1e;
      }
    </style>
  </defs>
  <path class="cls-1" d="M256.98,17.1c-14.18,0-26.86-6.42-35.3-16.51-.66-.78-1.86-.78-2.51,0-8.44,10.09-21.12,16.51-35.3,16.51-8,0-16.83-1.72-23.39-5.31-1.33-.73-2.86.52-2.38,1.95l13.22,35.26c.23.67.86,1.13,1.57,1.13h95.07c.71,0,1.34-.45,1.57-1.13l13.41-35.58c.48-1.43-1.05-2.68-2.38-1.95-6.55,3.59-15.58,5.63-23.57,5.63Z"/>
  <g>
    <path class="cls-2" d="M0,190.36l45.06-119.84h25.99l45.07,119.84h-26.5l-7.26-20.59h-49.28l-7.26,20.59H0ZM57.55,100.9l-16.54,46.75h33.42l-16.54-46.75h-.34Z"/>
    <path class="cls-2" d="M195.08,169.73h-20.56v-45.04c0-8.4-3.04-14.92-12.16-14.92s-14.77,6.23-14.77,16.36v43.59h-20.56v-75.88h18.97v9.27c3.48-6.52,11.01-11.01,21.87-11.01,10.28,0,17.67,4.06,22.01,10.72,6.66-7.38,14.34-10.72,25.2-10.72,18.25,0,27.51,12.6,27.51,30.27v47.35h-20.56v-45.04c0-8.4-3.04-14.92-12.16-14.92-9.7,0-14.77,6.23-14.77,16.8v43.15Z"/>
    <path class="cls-2" d="M334.53,93.84v75.88h-18.97v-9.27c-4.78,6.95-13.32,11.01-24.04,11.01-22.01,0-34.9-17.67-34.9-39.68s12.89-39.68,34.9-39.68c10.72,0,19.26,4.06,24.04,11.01v-9.27h18.97ZM295.87,110.21c-11.44,0-18.68,9.27-18.68,21.58s7.24,21.58,18.68,21.58,18.68-9.27,18.68-21.58-7.24-21.58-18.68-21.58Z"/>
    <path class="cls-2" d="M386.66,92.11c23.6,0,34.75,16.65,36.2,29.54h-21.14c-1.59-6.52-7.67-11.3-15.21-11.3-11,0-17.38,8.69-17.38,21.43s6.37,21.43,17.38,21.43c7.53,0,13.61-4.78,15.21-11.3h21.14c-1.45,12.89-12.6,29.54-36.2,29.54-22.01,0-38.09-17.09-38.09-39.68s16.07-39.68,38.09-39.68Z"/>
  </g>
</svg>